<svg width="1920" height="1359" viewBox="0 0 1920 1359" fill="none" xmlns="http://www.w3.org/2000/svg">
<path d="M1350.24 488.693L1347.52 405.792L1127.62 404.91L1350.24 488.693Z" fill="url(#paint0_linear_388_1198)"/>
<path d="M1667.49 575.188L1481.81 509.409L1496.23 747.262L1667.49 575.188Z" fill="url(#paint1_linear_388_1198)"/>
<path d="M1667.49 575.188L1481.81 509.409L1556.64 449.056L1667.49 575.188Z" fill="url(#paint2_linear_388_1198)"/>
<path d="M1194.31 945.479L1127.62 404.91L886.081 814.838L1194.31 945.479Z" fill="url(#paint3_linear_388_1198)"/>
<path d="M1194.31 945.479L959.958 960.77L886.081 814.838L1194.31 945.479Z" fill="url(#paint4_linear_388_1198)"/>
<path d="M331.768 523.82L299.341 485.099L127.2 538.23L331.768 523.82Z" fill="#DDF6FF"/>
<path d="M331.768 523.82L144.295 661.683L127.2 538.23L331.768 523.82Z" fill="#E8F9FF"/>
<path d="M-2 620.724L144.295 661.683L127.2 538.23L-2 550.809V620.724Z" fill="#DDF6FF"/>
<path d="M-2 1090.09L94.7385 1067.1L-2 1034.45V1090.09Z" fill="#E4F8FF"/>
<path d="M-2 717.323L144.295 661.683L-2 620.724V717.323Z" fill="#E8F9FF"/>
<path d="M-2 786.695L86.6317 796.799L144.295 661.683L-2 717.323V786.695Z" fill="#E4F8FF"/>
<path d="M-2 1034.45L94.7385 1067.1L86.6317 796.799L-2 937.748V1034.45Z" fill="#DDF6FF"/>
<path d="M-2 937.748L86.6317 796.799L-2 786.695V937.748Z" fill="#E8F9FF"/>
<path d="M604.854 290.476L571.511 193.199L519.241 325.637L604.854 290.476Z" fill="#E4F8FF"/>
<path d="M1556.64 449.056L1481.81 509.409L1423.23 480.589L1556.64 449.056Z" fill="url(#paint5_linear_388_1198)"/>
<path d="M1350.24 488.693L1347.52 405.792L1423.23 480.589L1350.24 488.693Z" fill="url(#paint6_linear_388_1198)"/>
<path d="M1921 1216.7V1162.14L1827.92 1225.65L1921 1216.7Z" fill="url(#paint7_linear_388_1198)"/>
<path d="M571.511 193.199L533.657 85.9874L484.101 187.774L571.511 193.199Z" fill="#E4F8FF"/>
<path d="M571.511 193.199L519.241 325.637L484.101 187.774L571.511 193.199Z" fill="#DDF6FF"/>
<path d="M519.241 325.637L309.246 312.109L484.101 187.774L519.241 325.637Z" fill="#E8F9FF"/>
<path d="M1921 452.65V299.529L1737.77 403.995L1921 452.65Z" fill="url(#paint8_linear_388_1198)"/>
<path d="M1921 559.32V452.65L1737.77 403.995L1921 559.32Z" fill="url(#paint9_linear_388_1198)"/>
<path d="M1921 610.281V559.32L1737.77 403.995L1667.49 575.188L1921 610.281Z" fill="url(#paint10_linear_388_1198)"/>
<path d="M1667.49 575.188L1556.64 449.056L1737.77 403.995L1667.49 575.188Z" fill="url(#paint11_linear_388_1198)"/>
<path d="M1574.65 403.995L1556.64 449.056L1737.77 403.995H1574.65Z" fill="url(#paint12_linear_388_1198)"/>
<path d="M1921 246.771L1651.27 245.449L1737.77 403.995L1921 299.529V246.771Z" fill="url(#paint13_linear_388_1198)"/>
<path d="M1655.04 -4L1651.27 245.449L1921 246.771V154.682L1763.85 -4H1655.04Z" fill="url(#paint14_linear_388_1198)"/>
<path d="M1737.77 403.995H1574.65L1651.27 245.449L1737.77 403.995Z" fill="url(#paint15_linear_388_1198)"/>
<path d="M1496.6 -4L1651.27 245.449L1655.04 -4H1496.6Z" fill="url(#paint16_linear_388_1198)"/>
<path d="M1574.65 403.995L1422.35 240.024L1651.27 245.449L1574.65 403.995Z" fill="url(#paint17_linear_388_1198)"/>
<path d="M1667.49 575.188L1496.23 747.262L1607.99 884.21L1667.49 575.188Z" fill="url(#paint18_linear_388_1198)"/>
<path d="M1763.85 -4L1921 154.682V-4H1763.85Z" fill="url(#paint19_linear_388_1198)"/>
<path d="M1622.41 1045.47L1524.18 1021.16L1538.59 1037.36L1622.41 1045.47Z" fill="url(#paint20_linear_388_1198)"/>
<path d="M1524.18 1021.16L1306.95 1234.67L1538.59 1037.36L1524.18 1021.16Z" fill="url(#paint21_linear_388_1198)"/>
<path d="M309.245 312.109L299.341 485.099L210.099 297.698L309.245 312.109Z" fill="#DDF6FF"/>
<path d="M309.245 312.109L232.621 228.326L210.099 297.698L309.245 312.109Z" fill="#E8F9FF"/>
<path d="M299.341 485.099L152.436 329.231L210.099 297.698L299.341 485.099Z" fill="#E8F9FF"/>
<path d="M232.622 228.326L88.4297 260.741L210.099 297.698L232.622 228.326Z" fill="#DDF6FF"/>
<path d="M152.436 329.231L88.4297 260.741L210.099 297.698L152.436 329.231Z" fill="#E4F8FF"/>
<path d="M671.574 477.877L604.854 290.476L548.989 420.236L671.574 477.877Z" fill="#E4F8FF"/>
<path d="M604.854 290.476L519.241 325.637L548.989 420.236L604.854 290.476Z" fill="#E8F9FF"/>
<path d="M671.574 477.877L548.989 420.236L554.382 439.122L671.574 477.877Z" fill="#DDF6FF"/>
<path d="M671.574 477.877L509.337 530.126L554.382 439.122L671.574 477.877Z" fill="#E8F9FF"/>
<path d="M668.521 -4L533.657 85.9874L956.362 32.8223L942.828 -4H668.521Z" fill="#E4F8FF"/>
<path d="M604.855 290.476L571.512 193.199L956.363 32.8223L604.855 290.476Z" fill="#E4F8FF"/>
<path d="M571.511 193.199L533.657 85.9874L956.362 32.8223L571.511 193.199Z" fill="#E8F9FF"/>
<path d="M533.657 85.9874L484.101 187.774L405.679 66.1522L533.657 85.9874Z" fill="#DDF6FF"/>
<path d="M1051 1116.64L1046.49 1331.98L824.789 1114.84L1051 1116.64Z" fill="#DDF6FF"/>
<path d="M1051 1116.64L959.958 960.77L824.789 1114.84L1051 1116.64Z" fill="url(#paint22_linear_388_1198)"/>
<path d="M1046.49 1331.98L752.676 1199.54L824.789 1114.84L1046.49 1331.98Z" fill="url(#paint23_linear_388_1198)"/>
<path d="M752.676 1199.54L547.191 950.87L824.789 1114.84L752.676 1199.54Z" fill="url(#paint24_linear_388_1198)"/>
<path d="M554.382 439.122L548.989 420.236L416.499 500.39L554.382 439.122Z" fill="#E8F9FF"/>
<path d="M554.382 439.122L509.337 530.126L416.499 500.39L554.382 439.122Z" fill="#E4F8FF"/>
<path d="M548.989 420.236L519.241 325.637L416.499 500.39L548.989 420.236Z" fill="#E4F8FF"/>
<path d="M519.241 325.637L309.246 312.109L416.499 500.39L519.241 325.637Z" fill="#DDF6FF"/>
<path d="M331.768 523.82L299.341 485.099L416.499 500.39L331.768 523.82Z" fill="#E4F8FF"/>
<path d="M309.246 312.109L299.341 485.099L416.499 500.39L309.246 312.109Z" fill="#E8F9FF"/>
<path d="M-2 1109.92L103.761 1104.94L94.7385 1067.1L-2 1090.09V1109.92Z" fill="#DDF6FF"/>
<path d="M-2 1204.86L103.761 1104.94L-2 1109.92V1204.86Z" fill="#E8F9FF"/>
<path d="M144.295 661.683L86.6318 796.799L159.627 745.465L144.295 661.683Z" fill="#DDF6FF"/>
<path d="M1651.27 245.449L1422.35 240.024L1425.94 177.873L1651.27 245.449Z" fill="url(#paint25_linear_388_1198)"/>
<path d="M1422.35 240.024L1272.73 58.964L1425.94 177.873L1422.35 240.024Z" fill="url(#paint26_linear_388_1198)"/>
<path d="M223.565 -4L232.621 228.326L346.048 -4H223.565Z" fill="#E4F8FF"/>
<path d="M-0.643219 -4L-2 -1.42312V13.2583L33.3781 -4H-0.643219Z" fill="#E8F9FF"/>
<path d="M1921 900.519V809.277L1883.79 825.654L1921 900.519Z" fill="url(#paint27_linear_388_1198)"/>
<path d="M1921 809.277V755.569L1883.79 825.654L1921 809.277Z" fill="url(#paint28_linear_388_1198)"/>
<path d="M1921 610.281L1667.49 575.188L1883.79 825.654L1921 755.569V610.281Z" fill="url(#paint29_linear_388_1198)"/>
<path d="M1667.49 575.188L1607.99 884.21L1883.79 825.654L1667.49 575.188Z" fill="url(#paint30_linear_388_1198)"/>
<path d="M384.411 -4L405.679 66.1522L533.657 85.9874L421.79 -4H384.411Z" fill="#E8F9FF"/>
<path d="M375.253 -4L405.679 66.1522L384.411 -4H375.253Z" fill="#DDF6FF"/>
<path d="M1622.41 1045.47L1538.59 1037.36L1535 1349.07L1622.41 1045.47Z" fill="#D7F4FF"/>
<path d="M1538.59 1037.36L1306.95 1234.67L1535 1349.07L1538.59 1037.36Z" fill="#E2F7FF"/>
<path d="M1331.31 1305.83L1306.95 1234.67L1535 1349.07L1331.31 1305.83Z" fill="url(#paint31_linear_388_1198)"/>
<path d="M1422.35 240.024L1272.73 58.964L1079.83 210.288L1422.35 240.024Z" fill="#DDF6FF"/>
<path d="M1347.52 405.792L1127.62 404.91L1079.83 210.288L1347.52 405.792Z" fill="#E4F8FF"/>
<path d="M1272.73 58.964L1043.81 93.1755L1079.83 210.288L1272.73 58.964Z" fill="#E8F9FF"/>
<path d="M1127.62 404.91L671.574 477.877L1079.83 210.288L1127.62 404.91Z" fill="#E8F9FF"/>
<path d="M1043.81 93.1755L956.362 32.8223L1079.83 210.288L1043.81 93.1755Z" fill="#E4F8FF"/>
<path d="M956.363 32.8223L604.854 290.476L1079.83 210.288L956.363 32.8223Z" fill="#E8F9FF"/>
<path d="M671.574 477.877L604.854 290.476L1079.83 210.288L671.574 477.877Z" fill="#DDF6FF"/>
<path d="M484.101 187.774L405.679 66.1522L382.24 153.563L484.101 187.774Z" fill="#DDF6FF"/>
<path d="M484.101 187.774L309.246 312.109L382.24 153.563L484.101 187.774Z" fill="#E4F8FF"/>
<path d="M364.976 -4L382.241 153.563L405.679 66.1522L375.253 -4H364.976Z" fill="#E4F8FF"/>
<path d="M346.049 -4L232.622 228.326L382.241 153.563L364.976 -4H346.049Z" fill="#E8F9FF"/>
<path d="M309.246 312.109L232.622 228.326L382.241 153.563L309.246 312.109Z" fill="#DDF6FF"/>
<path d="M752.676 1199.54L547.191 950.87L652.647 1316.65L752.676 1199.54Z" fill="url(#paint32_linear_388_1198)"/>
<path d="M547.191 950.87L311.043 1169.8L652.647 1316.65L547.191 950.87Z" fill="url(#paint33_linear_388_1198)"/>
<path d="M547.191 950.87L509.337 530.126L379.527 558.065L547.191 950.87Z" fill="#DDF6FF"/>
<path d="M509.337 530.126L416.499 500.39L379.527 558.065L509.337 530.126Z" fill="#E8F9FF"/>
<path d="M416.499 500.39L331.768 523.82L379.527 558.065L416.499 500.39Z" fill="#DDF6FF"/>
<path d="M547.191 950.87L379.527 558.065L238.931 720.239L547.191 950.87Z" fill="#E4F8FF"/>
<path d="M379.527 558.065L331.768 523.82L238.931 720.239L379.527 558.065Z" fill="#E8F9FF"/>
<path d="M331.768 523.82L144.295 661.683L238.93 720.239L331.768 523.82Z" fill="#DDF6FF"/>
<path d="M200.194 766.182L159.626 745.465L238.93 720.239L200.194 766.182Z" fill="#DDF6FF"/>
<path d="M159.627 745.465L144.295 661.683L238.93 720.239L159.627 745.465Z" fill="#E4F8FF"/>
<path d="M1622.41 1045.47L1607.99 884.21L1514.27 1004.03L1622.41 1045.47Z" fill="url(#paint34_linear_388_1198)"/>
<path d="M1622.41 1045.47L1524.18 1021.16L1514.27 1004.03L1622.41 1045.47Z" fill="url(#paint35_linear_388_1198)"/>
<path d="M1524.18 1021.16L1306.95 1234.67L1514.27 1004.03L1524.18 1021.16Z" fill="url(#paint36_linear_388_1198)"/>
<path d="M1306.95 1234.67L1194.31 945.479L1514.27 1004.03L1306.95 1234.67Z" fill="#E4F8FF"/>
<path d="M1921 1043.43L1721.55 935.544L1827.92 1225.65L1921 1162.14V1043.43Z" fill="url(#paint37_linear_388_1198)"/>
<path d="M1883.79 825.654L1607.99 884.21L1721.55 935.544L1883.79 825.654Z" fill="url(#paint38_linear_388_1198)"/>
<path d="M1827.92 1225.65L1622.41 1045.47L1721.55 935.544L1827.92 1225.65Z" fill="url(#paint39_linear_388_1198)"/>
<path d="M1622.41 1045.47L1607.99 884.21L1721.55 935.544L1622.41 1045.47Z" fill="url(#paint40_linear_388_1198)"/>
<path d="M1022.4 -4L1043.81 93.1755L1272.73 58.964L1111.34 -4H1022.4Z" fill="#E4F8FF"/>
<path d="M984.787 -4L956.362 32.8223L1043.81 93.1755L1022.4 -4H984.787Z" fill="#E8F9FF"/>
<path d="M942.829 -4L956.363 32.8223L984.787 -4H942.829Z" fill="#E4F8FF"/>
<path d="M1306.96 1234.67L1194.31 945.479L1122.2 1054.49L1306.96 1234.67Z" fill="#DDF6FF"/>
<path d="M1194.31 945.479L959.958 960.77L1122.2 1054.49L1194.31 945.479Z" fill="#E4F8FF"/>
<path d="M1051 1116.64L959.958 960.77L1122.2 1054.49L1051 1116.64Z" fill="#DDF6FF"/>
<path d="M1607.99 884.21L1514.27 1004.03L1495.34 865.29L1607.99 884.21Z" fill="url(#paint41_linear_388_1198)"/>
<path d="M1607.99 884.21L1496.23 747.262L1495.34 865.29L1607.99 884.21Z" fill="url(#paint42_linear_388_1198)"/>
<path d="M1514.27 1004.03L1194.31 945.479L1495.34 865.29L1514.27 1004.03Z" fill="#DDF6FF"/>
<path d="M129.235 -4L1.90088 123.827L232.622 228.326L223.565 -4H129.235Z" fill="#E8F9FF"/>
<path d="M232.622 228.326L88.4296 260.741L1.90088 123.827L232.622 228.326Z" fill="#E4F8FF"/>
<path d="M33.3781 -4L-2 13.2583V95.2438L1.90075 123.827L129.235 -4H33.3781Z" fill="#DDF6FF"/>
<path d="M-2 242.397L88.4295 260.741L1.90075 123.827L-2 128.709V242.397Z" fill="#DDF6FF"/>
<path d="M-2 121.657L1.90075 123.827L-2 95.2438V121.657Z" fill="#E8F9FF"/>
<path d="M1331.31 1305.83L1306.95 1234.67L1164.56 1189.6L1331.31 1305.83Z" fill="url(#paint43_linear_388_1198)"/>
<path d="M1306.96 1234.67L1122.2 1054.49L1164.56 1189.6L1306.96 1234.67Z" fill="#E7F9FF"/>
<path d="M1122.2 1054.49L1051 1116.64L1164.56 1189.6L1122.2 1054.49Z" fill="#DDF6FF"/>
<path d="M1051 1116.64L1046.49 1331.98L1164.56 1189.6L1051 1116.64Z" fill="#E4F8FF"/>
<path d="M1127.62 404.91L886.081 814.838L687.788 612.112L1127.62 404.91Z" fill="url(#paint44_linear_388_1198)"/>
<path d="M1127.62 404.91L671.574 477.877L687.788 612.112L1127.62 404.91Z" fill="url(#paint45_linear_388_1198)"/>
<path d="M671.574 477.877L509.337 530.126L687.788 612.112L671.574 477.877Z" fill="url(#paint46_linear_388_1198)"/>
<path d="M547.191 950.87L509.337 530.126L687.788 612.112L547.191 950.87Z" fill="url(#paint47_linear_388_1198)"/>
<path d="M1265.44 -4L1272.73 58.964L1325.27 -4H1265.44Z" fill="url(#paint48_linear_388_1198)"/>
<path d="M1111.34 -4L1272.73 58.964L1265.44 -4H1111.34Z" fill="#E8F9FF"/>
<path d="M1574.65 403.995L1556.64 449.056L1405.22 318.415L1574.65 403.995Z" fill="url(#paint49_linear_388_1198)"/>
<path d="M1574.65 403.995L1422.35 240.024L1405.22 318.415L1574.65 403.995Z" fill="url(#paint50_linear_388_1198)"/>
<path d="M1556.64 449.056L1423.23 480.589L1405.22 318.415L1556.64 449.056Z" fill="url(#paint51_linear_388_1198)"/>
<path d="M1423.23 480.589L1347.52 405.792L1405.22 318.415L1423.23 480.589Z" fill="url(#paint52_linear_388_1198)"/>
<path d="M1422.35 240.024L1079.83 210.288L1405.22 318.415L1422.35 240.024Z" fill="#E4F8FF"/>
<path d="M1347.52 405.792L1079.83 210.288L1405.22 318.415L1347.52 405.792Z" fill="#DDF6FF"/>
<path d="M547.191 950.87L311.043 1169.8L246.155 1022.95L547.191 950.87Z" fill="#E4F8FF"/>
<path d="M311.043 1169.8L103.761 1104.94L246.155 1022.95L311.043 1169.8Z" fill="#DDF6FF"/>
<path d="M103.761 1104.94L94.7383 1067.1L246.155 1022.95L103.761 1104.94Z" fill="#E8F9FF"/>
<path d="M1921 935.578V900.519L1883.79 825.654L1872.97 856.271L1921 935.578Z" fill="url(#paint53_linear_388_1198)"/>
<path d="M1921 1043.43V935.578L1872.97 856.271L1721.55 935.544L1921 1043.43Z" fill="url(#paint54_linear_388_1198)"/>
<path d="M1883.79 825.654L1721.55 935.544L1872.97 856.271L1883.79 825.654Z" fill="url(#paint55_linear_388_1198)"/>
<path d="M536.439 -4L533.657 85.9874L668.521 -4H536.439Z" fill="#E8F9FF"/>
<path d="M421.791 -4L533.657 85.9874L536.439 -4H421.791Z" fill="#E4F8FF"/>
<path d="M1827.92 1225.65L1768.43 1359L1746.79 1305.83L1827.92 1225.65Z" fill="url(#paint56_linear_388_1198)"/>
<path d="M1827.92 1225.65L1622.41 1045.47L1746.79 1305.83L1827.92 1225.65Z" fill="url(#paint57_linear_388_1198)"/>
<path d="M1768.43 1359L1535 1349.07L1746.79 1305.83L1768.43 1359Z" fill="url(#paint58_linear_388_1198)"/>
<path d="M1622.41 1045.47L1535 1349.07L1746.79 1305.83L1622.41 1045.47Z" fill="#DDF6FF"/>
<path d="M299.341 485.099L152.435 329.231L122.688 423.83L299.341 485.099Z" fill="#DDF6FF"/>
<path d="M299.341 485.099L127.199 538.23L122.688 423.83L299.341 485.099Z" fill="#E4F8FF"/>
<path d="M152.436 329.231L88.4297 260.741L122.688 423.83L152.436 329.231Z" fill="#E8F9FF"/>
<path d="M-2 550.809L127.199 538.23L122.688 423.83L-2 482.149V550.809Z" fill="#E8F9FF"/>
<path d="M-2 302.513L122.688 423.83L88.4295 260.741L-2 242.397V302.513Z" fill="#E4F8FF"/>
<path d="M-2 363.341L122.688 423.83L-2 302.513V363.341Z" fill="#DDF6FF"/>
<path d="M-2 482.149L122.688 423.83L-2 363.341V482.149Z" fill="#DDF6FF"/>
<path d="M1484.79 -4L1457.49 18.4121L1651.27 245.449L1496.6 -4H1484.79Z" fill="#E2F7FF"/>
<path d="M1651.27 245.449L1425.94 177.873L1457.49 18.4121L1651.27 245.449Z" fill="url(#paint59_linear_388_1198)"/>
<path d="M1460.47 -4L1457.49 18.4121L1484.79 -4H1460.47Z" fill="url(#paint60_linear_388_1198)"/>
<path d="M1325.27 -4L1272.73 58.964L1457.49 18.4121L1460.47 -4H1325.27Z" fill="url(#paint61_linear_388_1198)"/>
<path d="M1425.94 177.873L1272.73 58.964L1457.49 18.4121L1425.94 177.873Z" fill="url(#paint62_linear_388_1198)"/>
<path d="M547.191 950.87L246.155 1022.95L188.492 837.351L547.191 950.87Z" fill="#E4F8FF"/>
<path d="M547.191 950.87L238.931 720.239L188.492 837.351L547.191 950.87Z" fill="#DDF6FF"/>
<path d="M246.155 1022.95L94.7383 1067.1L188.492 837.351L246.155 1022.95Z" fill="#DDF6FF"/>
<path d="M238.931 720.239L200.194 766.182L188.492 837.351L238.931 720.239Z" fill="#E4F8FF"/>
<path d="M200.194 766.182L159.626 745.465L188.492 837.351L200.194 766.182Z" fill="#DDF6FF"/>
<path d="M159.627 745.465L86.6318 796.799L188.492 837.351L159.627 745.465Z" fill="#E4F8FF"/>
<path d="M94.7386 1067.1L86.6318 796.799L188.492 837.351L94.7386 1067.1Z" fill="#E4F8FF"/>
<path d="M1496.23 747.262L1495.34 865.29L1428.62 703.116L1496.23 747.262Z" fill="url(#paint63_linear_388_1198)"/>
<path d="M1496.23 747.262L1481.81 509.409L1428.62 703.116L1496.23 747.262Z" fill="url(#paint64_linear_388_1198)"/>
<path d="M1495.34 865.29L1194.31 945.479L1428.62 703.116L1495.34 865.29Z" fill="#E4F8FF"/>
<path d="M959.958 960.77L886.081 814.838L735.546 888.719L959.958 960.77Z" fill="url(#paint65_linear_388_1198)"/>
<path d="M959.958 960.77L824.789 1114.84L735.546 888.719L959.958 960.77Z" fill="url(#paint66_linear_388_1198)"/>
<path d="M886.081 814.838L687.788 612.112L735.546 888.719L886.081 814.838Z" fill="url(#paint67_linear_388_1198)"/>
<path d="M824.789 1114.84L547.191 950.87L735.547 888.719L824.789 1114.84Z" fill="url(#paint68_linear_388_1198)"/>
<path d="M687.788 612.112L547.191 950.87L735.547 888.719L687.788 612.112Z" fill="url(#paint69_linear_388_1198)"/>
<path d="M1481.81 509.409L1428.62 703.116L1395.28 590.513L1481.81 509.409Z" fill="url(#paint70_linear_388_1198)"/>
<path d="M1481.81 509.409L1423.23 480.589L1395.28 590.513L1481.81 509.409Z" fill="url(#paint71_linear_388_1198)"/>
<path d="M1428.62 703.116L1194.31 945.479L1395.28 590.513L1428.62 703.116Z" fill="#DDF6FF"/>
<path d="M1423.23 480.589L1350.24 488.693L1395.28 590.513L1423.23 480.589Z" fill="url(#paint72_linear_388_1198)"/>
<path d="M1350.24 488.693L1127.62 404.91L1395.28 590.513L1350.24 488.693Z" fill="url(#paint73_linear_388_1198)"/>
<path d="M1194.31 945.479L1127.62 404.91L1395.28 590.513L1194.31 945.479Z" fill="url(#paint74_linear_388_1198)"/>
<defs>
<linearGradient id="paint0_linear_388_1198" x1="1405.8" y1="466.586" x2="1348.2" y2="319.458" gradientUnits="userSpaceOnUse">
<stop stop-color="#ECFAFF"/>
<stop offset="1" stop-color="#DBF5FF"/>
</linearGradient>
<linearGradient id="paint1_linear_388_1198" x1="1661.72" y1="756.553" x2="1429.48" y2="582.037" gradientUnits="userSpaceOnUse">
<stop stop-color="#DBF5FF"/>
<stop offset="1" stop-color="#DFF6FF"/>
</linearGradient>
<linearGradient id="paint2_linear_388_1198" x1="1661.72" y1="574.747" x2="1547.64" y2="406.209" gradientUnits="userSpaceOnUse">
<stop stop-color="#DDF5FF"/>
<stop offset="1" stop-color="#EBF9FF"/>
</linearGradient>
<linearGradient id="paint3_linear_388_1198" x1="1194.65" y1="940.799" x2="722.162" y2="671.641" gradientUnits="userSpaceOnUse">
<stop stop-color="#CEF1FF"/>
<stop offset="1" stop-color="#E5F8FF"/>
</linearGradient>
<linearGradient id="paint4_linear_388_1198" x1="1144.58" y1="985.217" x2="1028.67" y2="742.105" gradientUnits="userSpaceOnUse">
<stop stop-color="#D0F2FF"/>
<stop offset="1" stop-color="#E4F7FF"/>
</linearGradient>
<linearGradient id="paint5_linear_388_1198" x1="1570.88" y1="503.442" x2="1525.22" y2="401.921" gradientUnits="userSpaceOnUse">
<stop stop-color="#F3FCFF"/>
<stop offset="1" stop-color="#F2FBFF"/>
</linearGradient>
<linearGradient id="paint6_linear_388_1198" x1="1408" y1="506.392" x2="1324.38" y2="429.495" gradientUnits="userSpaceOnUse">
<stop stop-color="#EEFAFF"/>
<stop offset="1" stop-color="#E2F7FF"/>
</linearGradient>
<linearGradient id="paint7_linear_388_1198" x1="2011.36" y1="1264.44" x2="1913.88" y2="1057.99" gradientUnits="userSpaceOnUse">
<stop stop-color="#FAFEFF"/>
<stop offset="1" stop-color="#FAFEFF"/>
</linearGradient>
<linearGradient id="paint8_linear_388_1198" x1="2066.48" y1="514.36" x2="1835.52" y2="184.621" gradientUnits="userSpaceOnUse">
<stop stop-color="#CEF1FF"/>
<stop offset="1" stop-color="#D0F2FF"/>
</linearGradient>
<linearGradient id="paint9_linear_388_1198" x1="2110.34" y1="616.452" x2="1916.52" y2="293.791" gradientUnits="userSpaceOnUse">
<stop stop-color="#D7F4FF"/>
<stop offset="1" stop-color="#DBF5FF"/>
</linearGradient>
<linearGradient id="paint10_linear_388_1198" x1="1948.07" y1="651.579" x2="1745.74" y2="346.803" gradientUnits="userSpaceOnUse">
<stop stop-color="#E9F9FF"/>
<stop offset="1" stop-color="#DCF5FF"/>
</linearGradient>
<linearGradient id="paint11_linear_388_1198" x1="1764.87" y1="546.774" x2="1598.32" y2="370.411" gradientUnits="userSpaceOnUse">
<stop stop-color="#E0F6FF"/>
<stop offset="1" stop-color="#E5F8FF"/>
</linearGradient>
<linearGradient id="paint12_linear_388_1198" x1="1735.43" y1="450.039" x2="1715.56" y2="366.826" gradientUnits="userSpaceOnUse">
<stop stop-color="#E3F7FF"/>
<stop offset="1" stop-color="#E3F7FF"/>
</linearGradient>
<linearGradient id="paint13_linear_388_1198" x1="2012.11" y1="404.232" x2="1889.37" y2="136.4" gradientUnits="userSpaceOnUse">
<stop stop-color="#F3FCFF"/>
<stop offset="1" stop-color="#E8F8FF"/>
</linearGradient>
<linearGradient id="paint14_linear_388_1198" x1="1923.78" y1="332.791" x2="1558.34" y2="-20.6105" gradientUnits="userSpaceOnUse">
<stop stop-color="#F0FBFF"/>
<stop offset="1" stop-color="#E7F8FF"/>
</linearGradient>
<linearGradient id="paint15_linear_388_1198" x1="1714.4" y1="423.66" x2="1559.02" y2="264.158" gradientUnits="userSpaceOnUse">
<stop stop-color="#D9F4FF"/>
<stop offset="1" stop-color="#E8F8FF"/>
</linearGradient>
<linearGradient id="paint16_linear_388_1198" x1="1672.27" y1="212.119" x2="1400.42" y2="81.7296" gradientUnits="userSpaceOnUse">
<stop stop-color="#E3F7FF"/>
<stop offset="1" stop-color="#ECFAFF"/>
</linearGradient>
<linearGradient id="paint17_linear_388_1198" x1="1683.26" y1="374.801" x2="1531.31" y2="163.385" gradientUnits="userSpaceOnUse">
<stop stop-color="#E0F6FF"/>
<stop offset="1" stop-color="#D6F3FF"/>
</linearGradient>
<linearGradient id="paint18_linear_388_1198" x1="1684.38" y1="854.067" x2="1422.42" y2="702.493" gradientUnits="userSpaceOnUse">
<stop stop-color="#DBF5FF"/>
<stop offset="1" stop-color="#D9F4FF"/>
</linearGradient>
<linearGradient id="paint19_linear_388_1198" x1="2023.17" y1="239.244" x2="1567.78" y2="-110.622" gradientUnits="userSpaceOnUse">
<stop stop-color="#F7FDFF"/>
<stop offset="1" stop-color="#ECFAFF"/>
</linearGradient>
<linearGradient id="paint20_linear_388_1198" x1="1610.33" y1="1048.86" x2="1598.94" y2="1002.49" gradientUnits="userSpaceOnUse">
<stop stop-color="#D5F3FF"/>
<stop offset="1" stop-color="#D8F4FF"/>
</linearGradient>
<linearGradient id="paint21_linear_388_1198" x1="1532.99" y1="1238.77" x2="1325.99" y2="1005.36" gradientUnits="userSpaceOnUse">
<stop stop-color="#D7F4FF"/>
<stop offset="1" stop-color="#DEF6FF"/>
</linearGradient>
<linearGradient id="paint22_linear_388_1198" x1="1026.61" y1="1135.32" x2="886.597" y2="923.096" gradientUnits="userSpaceOnUse">
<stop stop-color="#CBF0FF"/>
<stop offset="1" stop-color="#E7F8FF"/>
</linearGradient>
<linearGradient id="paint23_linear_388_1198" x1="1034.28" y1="1337.91" x2="831.069" y2="1063.75" gradientUnits="userSpaceOnUse">
<stop stop-color="#E9F9FF"/>
<stop offset="1" stop-color="#E6F8FF"/>
</linearGradient>
<linearGradient id="paint24_linear_388_1198" x1="827.435" y1="1195.06" x2="587.413" y2="916.406" gradientUnits="userSpaceOnUse">
<stop stop-color="#E2F7FF"/>
<stop offset="1" stop-color="#D8F4FF"/>
</linearGradient>
<linearGradient id="paint25_linear_388_1198" x1="1599.61" y1="261.52" x2="1562.29" y2="135.228" gradientUnits="userSpaceOnUse">
<stop stop-color="#EFFAFF"/>
<stop offset="1" stop-color="#DCF5FF"/>
</linearGradient>
<linearGradient id="paint26_linear_388_1198" x1="1439.31" y1="225.987" x2="1257.99" y2="73.0209" gradientUnits="userSpaceOnUse">
<stop stop-color="#D3F2FF"/>
<stop offset="1" stop-color="#E5F8FF"/>
</linearGradient>
<linearGradient id="paint27_linear_388_1198" x1="2147.38" y1="1154.31" x2="1749.92" y2="853.039" gradientUnits="userSpaceOnUse">
<stop stop-color="#FDFEFF"/>
<stop offset="1" stop-color="#EBF9FF"/>
</linearGradient>
<linearGradient id="paint28_linear_388_1198" x1="2072.28" y1="906.046" x2="1889.33" y2="621.235" gradientUnits="userSpaceOnUse">
<stop stop-color="#FEFFFF"/>
<stop offset="1" stop-color="#EBF9FF"/>
</linearGradient>
<linearGradient id="paint29_linear_388_1198" x1="2014.21" y1="804.055" x2="1777.29" y2="496.961" gradientUnits="userSpaceOnUse">
<stop stop-color="#E1F6FF"/>
<stop offset="1" stop-color="#C9F0FF"/>
</linearGradient>
<linearGradient id="paint30_linear_388_1198" x1="1833.69" y1="942.122" x2="1522.67" y2="675.628" gradientUnits="userSpaceOnUse">
<stop stop-color="#DAF4FF"/>
<stop offset="1" stop-color="#D3F2FF"/>
</linearGradient>
<linearGradient id="paint31_linear_388_1198" x1="1504.57" y1="1364.8" x2="1417.34" y2="1183.65" gradientUnits="userSpaceOnUse">
<stop stop-color="#DBF5FF"/>
<stop offset="1" stop-color="#C2EEFF"/>
</linearGradient>
<linearGradient id="paint32_linear_388_1198" x1="745.722" y1="1331.03" x2="428.619" y2="1152.86" gradientUnits="userSpaceOnUse">
<stop stop-color="#E2F7FF"/>
<stop offset="1" stop-color="#D9F4FF"/>
</linearGradient>
<linearGradient id="paint33_linear_388_1198" x1="664.214" y1="1301.33" x2="294.727" y2="969.164" gradientUnits="userSpaceOnUse">
<stop stop-color="#CFF1FF"/>
<stop offset="1" stop-color="#DBF5FF"/>
</linearGradient>
<linearGradient id="paint34_linear_388_1198" x1="1628.04" y1="1038.59" x2="1478.7" y2="941.979" gradientUnits="userSpaceOnUse">
<stop stop-color="#D6F3FF"/>
<stop offset="1" stop-color="#DBF5FF"/>
</linearGradient>
<linearGradient id="paint35_linear_388_1198" x1="1614.81" y1="1048.99" x2="1586.42" y2="975.145" gradientUnits="userSpaceOnUse">
<stop stop-color="#D5F3FF"/>
<stop offset="1" stop-color="#D9F4FF"/>
</linearGradient>
<linearGradient id="paint36_linear_388_1198" x1="1521.09" y1="1237.75" x2="1286.75" y2="1017.71" gradientUnits="userSpaceOnUse">
<stop stop-color="#D7F4FF"/>
<stop offset="1" stop-color="#E0F6FF"/>
</linearGradient>
<linearGradient id="paint37_linear_388_1198" x1="1989.14" y1="1253.38" x2="1706.25" y2="952.657" gradientUnits="userSpaceOnUse">
<stop stop-color="#F9FDFF"/>
<stop offset="1" stop-color="#EDFAFF"/>
</linearGradient>
<linearGradient id="paint38_linear_388_1198" x1="1912.28" y1="922.761" x2="1833.98" y2="732.758" gradientUnits="userSpaceOnUse">
<stop stop-color="#CAF0FF"/>
<stop offset="1" stop-color="#D6F3FF"/>
</linearGradient>
<linearGradient id="paint39_linear_388_1198" x1="1830.33" y1="1217.98" x2="1559.65" y2="1018.59" gradientUnits="userSpaceOnUse">
<stop stop-color="#D9F4FF"/>
<stop offset="1" stop-color="#C9F0FF"/>
</linearGradient>
<linearGradient id="paint40_linear_388_1198" x1="1718.26" y1="1051.67" x2="1565.85" y2="947.773" gradientUnits="userSpaceOnUse">
<stop stop-color="#D6F3FF"/>
<stop offset="1" stop-color="#D8F4FF"/>
</linearGradient>
<linearGradient id="paint41_linear_388_1198" x1="1610.3" y1="1003.76" x2="1472.53" y2="891.679" gradientUnits="userSpaceOnUse">
<stop stop-color="#DCF5FF"/>
<stop offset="1" stop-color="#D8F4FF"/>
</linearGradient>
<linearGradient id="paint42_linear_388_1198" x1="1582.82" y1="911.81" x2="1451.2" y2="804.078" gradientUnits="userSpaceOnUse">
<stop stop-color="#DBF5FF"/>
<stop offset="1" stop-color="#D5F3FF"/>
</linearGradient>
<linearGradient id="paint43_linear_388_1198" x1="1349.08" y1="1292.75" x2="1244.57" y2="1136.04" gradientUnits="userSpaceOnUse">
<stop stop-color="#ECFAFF"/>
<stop offset="1" stop-color="#E0F6FF"/>
</linearGradient>
<linearGradient id="paint44_linear_388_1198" x1="1172.77" y1="764.927" x2="774.28" y2="336.243" gradientUnits="userSpaceOnUse">
<stop stop-color="#E1F6FF"/>
<stop offset="1" stop-color="#DEF6FF"/>
</linearGradient>
<linearGradient id="paint45_linear_388_1198" x1="1141.36" y1="612.993" x2="983.283" y2="264.196" gradientUnits="userSpaceOnUse">
<stop stop-color="#DBF5FF"/>
<stop offset="1" stop-color="#D0F2FF"/>
</linearGradient>
<linearGradient id="paint46_linear_388_1198" x1="711.294" y1="595.701" x2="580.18" y2="421.358" gradientUnits="userSpaceOnUse">
<stop stop-color="#C9F0FF"/>
<stop offset="1" stop-color="#C9F0FF"/>
</linearGradient>
<linearGradient id="paint47_linear_388_1198" x1="689.517" y1="942.664" x2="390.355" y2="820.914" gradientUnits="userSpaceOnUse">
<stop stop-color="#CDF1FF"/>
<stop offset="1" stop-color="#CEF1FF"/>
</linearGradient>
<linearGradient id="paint48_linear_388_1198" x1="1409.36" y1="171.126" x2="1088.04" y2="-76.5194" gradientUnits="userSpaceOnUse">
<stop stop-color="#E2F7FF"/>
<stop offset="1" stop-color="#E0F6FF"/>
</linearGradient>
<linearGradient id="paint49_linear_388_1198" x1="1585.37" y1="439.054" x2="1455.24" y2="277.463" gradientUnits="userSpaceOnUse">
<stop stop-color="#F0FBFF"/>
<stop offset="1" stop-color="#F0FBFF"/>
</linearGradient>
<linearGradient id="paint50_linear_388_1198" x1="1557.82" y1="421.558" x2="1390.91" y2="249.496" gradientUnits="userSpaceOnUse">
<stop stop-color="#EFFAFF"/>
<stop offset="1" stop-color="#DDF5FF"/>
</linearGradient>
<linearGradient id="paint51_linear_388_1198" x1="1529.43" y1="509.138" x2="1370.68" y2="354.735" gradientUnits="userSpaceOnUse">
<stop stop-color="#F2FBFF"/>
<stop offset="1" stop-color="#EEFAFF"/>
</linearGradient>
<linearGradient id="paint52_linear_388_1198" x1="1426.52" y1="469.468" x2="1304.87" y2="412.677" gradientUnits="userSpaceOnUse">
<stop stop-color="#EEFAFF"/>
<stop offset="1" stop-color="#E0F6FF"/>
</linearGradient>
<linearGradient id="paint53_linear_388_1198" x1="2018.15" y1="1098.94" x2="1789.14" y2="975.908" gradientUnits="userSpaceOnUse">
<stop stop-color="#FAFEFF"/>
<stop offset="1" stop-color="#D7F4FF"/>
</linearGradient>
<linearGradient id="paint54_linear_388_1198" x1="2025.27" y1="1089.82" x2="1797.88" y2="797.734" gradientUnits="userSpaceOnUse">
<stop stop-color="#FAFEFF"/>
<stop offset="1" stop-color="#DCF5FF"/>
</linearGradient>
<linearGradient id="paint55_linear_388_1198" x1="1884.1" y1="936.087" x2="1781.11" y2="783.515" gradientUnits="userSpaceOnUse">
<stop stop-color="#B8EBFF"/>
<stop offset="1" stop-color="#C2EEFF"/>
</linearGradient>
<linearGradient id="paint56_linear_388_1198" x1="1832.81" y1="1351.81" x2="1715.13" y2="1277.47" gradientUnits="userSpaceOnUse">
<stop stop-color="#F9FDFF"/>
<stop offset="1" stop-color="#F8FDFF"/>
</linearGradient>
<linearGradient id="paint57_linear_388_1198" x1="1821.99" y1="1312.21" x2="1572.71" y2="1107.4" gradientUnits="userSpaceOnUse">
<stop stop-color="#F5FCFF"/>
<stop offset="1" stop-color="#E9F9FF"/>
</linearGradient>
<linearGradient id="paint58_linear_388_1198" x1="1771.11" y1="1356.8" x2="1748.49" y2="1257.8" gradientUnits="userSpaceOnUse">
<stop stop-color="#F8FDFF"/>
<stop offset="1" stop-color="#D3F2FF"/>
</linearGradient>
<linearGradient id="paint59_linear_388_1198" x1="1619.62" y1="277.287" x2="1389.07" y2="48.3356" gradientUnits="userSpaceOnUse">
<stop stop-color="#EDFAFF"/>
<stop offset="1" stop-color="#E9F9FF"/>
</linearGradient>
<linearGradient id="paint60_linear_388_1198" x1="1482.79" y1="78.0533" x2="1413.4" y2="66.7528" gradientUnits="userSpaceOnUse">
<stop stop-color="#E8F8FF"/>
<stop offset="1" stop-color="#E5F8FF"/>
</linearGradient>
<linearGradient id="paint61_linear_388_1198" x1="1439.61" y1="118.605" x2="1183.6" y2="-94.961" gradientUnits="userSpaceOnUse">
<stop stop-color="#E3F7FF"/>
<stop offset="1" stop-color="#E5F8FF"/>
</linearGradient>
<linearGradient id="paint62_linear_388_1198" x1="1493.78" y1="149.019" x2="1333.6" y2="-36.3989" gradientUnits="userSpaceOnUse">
<stop stop-color="#E8F8FF"/>
<stop offset="1" stop-color="#E6F8FF"/>
</linearGradient>
<linearGradient id="paint63_linear_388_1198" x1="1507.45" y1="835.826" x2="1391.66" y2="785.703" gradientUnits="userSpaceOnUse">
<stop stop-color="#D0F2FF"/>
<stop offset="1" stop-color="#CFF1FF"/>
</linearGradient>
<linearGradient id="paint64_linear_388_1198" x1="1496.46" y1="746.889" x2="1373.63" y2="713.361" gradientUnits="userSpaceOnUse">
<stop stop-color="#D0F2FF"/>
<stop offset="1" stop-color="#DBF5FF"/>
</linearGradient>
<linearGradient id="paint65_linear_388_1198" x1="964.368" y1="955.379" x2="835.266" y2="749.758" gradientUnits="userSpaceOnUse">
<stop stop-color="#E0F6FF"/>
<stop offset="1" stop-color="#D8F4FF"/>
</linearGradient>
<linearGradient id="paint66_linear_388_1198" x1="964.368" y1="1113.82" x2="734.658" y2="885.72" gradientUnits="userSpaceOnUse">
<stop stop-color="#E4F7FF"/>
<stop offset="1" stop-color="#DEF6FF"/>
</linearGradient>
<linearGradient id="paint67_linear_388_1198" x1="861.863" y1="921.236" x2="598.752" y2="740.094" gradientUnits="userSpaceOnUse">
<stop stop-color="#E0F6FF"/>
<stop offset="1" stop-color="#DBF5FF"/>
</linearGradient>
<linearGradient id="paint68_linear_388_1198" x1="849.957" y1="1095.45" x2="635.669" y2="821.879" gradientUnits="userSpaceOnUse">
<stop stop-color="#E2F7FF"/>
<stop offset="1" stop-color="#D2F2FF"/>
</linearGradient>
<linearGradient id="paint69_linear_388_1198" x1="722.861" y1="975.079" x2="430.642" y2="813.47" gradientUnits="userSpaceOnUse">
<stop stop-color="#D9F4FF"/>
<stop offset="1" stop-color="#CEF1FF"/>
</linearGradient>
<linearGradient id="paint70_linear_388_1198" x1="1488.66" y1="683.112" x2="1348.59" y2="620.902" gradientUnits="userSpaceOnUse">
<stop stop-color="#E2F7FF"/>
<stop offset="1" stop-color="#D0F2FF"/>
</linearGradient>
<linearGradient id="paint71_linear_388_1198" x1="1474.69" y1="598.38" x2="1370.08" y2="512.671" gradientUnits="userSpaceOnUse">
<stop stop-color="#F2FBFF"/>
<stop offset="1" stop-color="#E5F8FF"/>
</linearGradient>
<linearGradient id="paint72_linear_388_1198" x1="1434.49" y1="571.729" x2="1333.24" y2="506.407" gradientUnits="userSpaceOnUse">
<stop stop-color="#F0FBFF"/>
<stop offset="1" stop-color="#E4F7FF"/>
</linearGradient>
<linearGradient id="paint73_linear_388_1198" x1="1418.96" y1="575.357" x2="1252.35" y2="324.32" gradientUnits="userSpaceOnUse">
<stop stop-color="#E7F8FF"/>
<stop offset="1" stop-color="#DAF4FF"/>
</linearGradient>
<linearGradient id="paint74_linear_388_1198" x1="1386.29" y1="962.771" x2="956.073" y2="740.686" gradientUnits="userSpaceOnUse">
<stop stop-color="#D2F2FF"/>
<stop offset="1" stop-color="#DFF6FF"/>
</linearGradient>
</defs>
</svg>
