<svg width="75" height="75" viewBox="0 0 75 75" fill="none" xmlns="http://www.w3.org/2000/svg">
<circle cx="37.5" cy="37.5" r="37.5" fill="#0F6AFF"/>
<g clip-path="url(#clip0_8512_11475)">
<path d="M61.3632 52.2834C61.1569 53.0452 60.8908 53.7761 60.3258 54.3699C59.6277 55.1039 58.7788 55.6099 57.7587 55.6385C55.6843 55.697 53.6072 55.6671 51.5312 55.6718C51.4885 55.6718 51.4456 55.649 51.4831 55.6598C51.5242 54.856 51.5956 54.0768 51.5982 53.2977C51.6103 49.5473 51.6012 45.7967 51.605 42.0464C51.6063 40.725 51.5655 39.4111 51.1059 38.1467C51.0818 38.0806 51.0909 38.0029 51.0791 37.8669C53.2847 37.9958 55.525 37.519 57.6056 38.575C59.6483 39.6118 60.8889 41.2265 61.279 43.4545C61.2911 43.5238 61.3343 43.5879 61.363 43.6543C61.3632 46.5307 61.3632 49.4072 61.3632 52.2834Z" fill="white"/>
<path d="M38.0507 55.6787C35.0056 55.6787 31.9604 55.6795 28.9153 55.6781C27.7013 55.6776 27.2425 55.2307 27.2434 54.0458C27.2463 49.63 27.2216 45.2139 27.267 40.7983C27.2965 37.9307 29.4023 35.3933 32.2489 34.6932C32.8002 34.5575 33.3827 34.4882 33.9514 34.4851C36.7993 34.4688 39.6481 34.4496 42.4954 34.4995C45.4166 34.5504 48.0169 36.6275 48.7005 39.4126C48.8504 40.0238 48.9063 40.6702 48.9089 41.3005C48.9266 45.5534 48.9189 49.8066 48.9175 54.0595C48.9173 55.221 48.4553 55.6771 47.2769 55.6779C44.2015 55.6797 41.1261 55.6787 38.0507 55.6787Z" fill="white"/>
<path d="M38.0822 17.0454C42.5296 17.0468 46.1784 20.5811 46.1682 24.9036C46.158 29.2971 42.6434 32.8575 38.0792 32.8564C33.5102 32.8554 30.0015 29.2898 29.9932 24.9007C29.9849 20.5782 33.636 17.0441 38.0822 17.0454Z" fill="white"/>
<path d="M25.0657 37.9619C24.9482 38.4897 24.7861 39.057 24.7032 39.6354C24.6152 40.249 24.5653 40.8728 24.5637 41.4924C24.5519 45.5519 24.5519 49.6116 24.5634 53.6711C24.5653 54.3169 24.6453 54.9625 24.6919 55.6508C24.7 55.6493 24.6337 55.6752 24.5677 55.6752C22.5837 55.6726 20.5986 55.7025 18.6157 55.6529C16.5737 55.6018 14.8556 53.9443 14.8175 51.949C14.7665 49.283 14.7472 46.6139 14.8223 43.9492C14.9055 40.9982 17.597 38.2257 20.6112 37.9824C22.0823 37.8638 23.5716 37.9619 25.0657 37.9619Z" fill="white"/>
<path d="M23.8735 24.4081C27.1858 24.3913 29.9229 27.0437 29.9452 30.2915C29.9669 33.5198 27.196 36.2514 23.8939 36.2564C20.574 36.2617 17.8066 33.5547 17.8184 30.3135C17.8302 27.0702 20.5424 24.4252 23.8735 24.4081Z" fill="white"/>
<path d="M52.2532 24.4081C55.558 24.3813 58.2894 27.0148 58.3428 30.2796C58.3954 33.4983 55.6333 36.2312 52.302 36.2564C49.0079 36.2814 46.2609 33.6041 46.2163 30.3253C46.1729 27.1229 48.9145 24.4351 52.2532 24.4081Z" fill="white"/>
</g>
<defs>
<clipPath id="clip0_8512_11475">
<rect width="46.5909" height="38.6364" fill="white" transform="translate(14.7725 17.0454)"/>
</clipPath>
</defs>
</svg>
