<svg width="75" height="75" viewBox="0 0 75 75" fill="none" xmlns="http://www.w3.org/2000/svg">
<circle cx="37.5" cy="37.5" r="37.5" fill="#21C6FB"/>
<path d="M51.7354 37.1586C51.7354 36.9811 51.7354 36.8045 51.7354 36.627C51.7452 30.8923 51.7568 25.1576 51.7649 19.422C51.7675 17.2551 50.4322 15.9091 48.2881 15.9091C43.224 15.9091 38.1608 15.9091 33.0967 15.91C30.52 15.91 27.9432 15.9154 25.3674 15.9136C23.6782 15.9127 22.2106 17.2209 22.1722 18.9003C22.1346 20.55 22.1364 22.2015 22.1319 23.8521C22.123 27.155 22.1212 30.458 22.1185 33.7601C22.1167 36.7324 22.1185 39.7047 22.1185 42.677C22.1185 45.0493 22.1123 47.4206 22.1203 49.7929C22.1275 51.9534 23.427 53.2896 25.5542 53.3058C27.6688 53.322 29.7835 53.3121 31.899 53.3058C32.0367 53.3058 32.2101 53.277 32.3057 53.1914C32.7839 52.7661 33.2415 52.3174 33.759 51.8282C33.3425 51.6048 33.0064 51.4723 32.7285 51.2624C32.396 51.011 32.051 50.9561 31.6524 50.9588C29.687 50.9732 27.7207 50.9669 25.7544 50.9642C24.689 50.9633 24.4405 50.7092 24.4405 49.6343C24.4423 43.3293 24.4459 37.0234 24.4477 30.7184C24.4495 26.9505 24.4477 23.1817 24.4531 19.4139C24.4539 18.5408 24.7444 18.2543 25.606 18.2507C26.6339 18.2462 27.6608 18.2543 28.6886 18.2543C35.2417 18.2525 41.7949 18.2498 48.3471 18.2498C49.1291 18.2498 49.4393 18.5561 49.4402 19.331C49.4419 21.5978 49.4375 23.8647 49.4375 26.1324C49.4375 29.0146 49.4366 31.8978 49.4518 34.78C49.4527 34.9169 49.5707 35.1368 49.6842 35.1764C50.67 35.5242 51.2831 36.226 51.7354 37.1586Z" fill="white"/>
<path d="M36.896 25.5802C36.896 25.5775 36.896 25.5739 36.896 25.5712C37.2982 25.5712 37.7004 25.5712 38.1017 25.5712C40.3942 25.5739 42.6867 25.5748 44.9801 25.582C45.3806 25.5829 45.7586 25.5315 46.033 25.2018C46.3262 24.8486 46.3959 24.4449 46.1975 24.0269C45.9624 23.534 45.5307 23.3899 45.015 23.3899C39.6256 23.3935 34.2361 23.3917 28.8458 23.3953C28.6546 23.3953 28.4553 23.4124 28.2747 23.4692C27.8046 23.616 27.5007 24.1017 27.549 24.5828C27.599 25.081 27.9673 25.4838 28.4561 25.554C28.6465 25.5811 28.8423 25.5793 29.0353 25.5793C31.6549 25.5811 34.2755 25.5802 36.896 25.5802Z" fill="white"/>
<path d="M36.897 31.1752C36.897 31.1716 36.897 31.1689 36.897 31.1652C39.2342 31.1652 41.5723 31.1662 43.9095 31.1643C44.4002 31.1643 44.8954 31.1905 45.3816 31.1391C46.1431 31.0589 46.5319 30.2156 46.1502 29.5453C45.8749 29.0615 45.4245 28.9759 44.9267 28.9768C39.5962 28.9786 34.2658 28.9768 28.9353 28.9804C28.7441 28.9804 28.5501 29.0038 28.3633 29.0462C27.886 29.1543 27.6224 29.4885 27.558 29.9552C27.4955 30.4111 27.6751 30.8085 28.0889 31.0022C28.3589 31.1283 28.6878 31.168 28.9907 31.1689C31.6265 31.1797 34.2622 31.1752 36.897 31.1752Z" fill="white"/>
<path d="M45.8027 55.6492C45.8278 55.6898 45.8447 55.7321 45.8733 55.7609C47.365 57.2674 48.8496 58.781 50.3556 60.2739C50.8391 60.7532 51.4326 60.528 51.5702 59.8423C51.6846 59.2711 51.7928 58.6981 51.8813 58.1224C51.9286 57.817 52.0502 57.6602 52.3782 57.6187C52.9216 57.5494 53.4588 57.4268 53.9977 57.3214C54.3087 57.2602 54.6126 57.1836 54.719 56.816C54.82 56.4637 54.6582 56.215 54.424 55.9799C53.7287 55.2816 53.0405 54.5761 52.3469 53.8761C51.9224 53.4472 51.4925 53.0238 51.0054 52.5381C50.9508 52.94 50.907 53.2463 50.8677 53.5526C50.697 54.905 49.645 55.7069 48.3214 55.4951C47.8084 55.4132 47.2846 55.378 46.7841 55.2492C46.3292 55.1321 46.0432 55.2843 45.8027 55.6492Z" fill="white"/>
<path d="M40.627 55.7096C40.627 55.6384 40.6261 55.5672 40.6261 55.4969C40.3562 55.4032 40.08 55.2185 39.8163 55.2348C39.2265 55.2708 38.6419 55.4059 38.0556 55.5023C36.8428 55.7024 35.8078 54.9672 35.5808 53.7382C35.512 53.367 35.4565 52.9931 35.3958 52.6246C34.1892 53.8157 33.0005 54.9681 31.8404 56.1492C31.4516 56.5448 31.6544 57.1376 32.1961 57.2637C32.8181 57.4088 33.4465 57.5304 34.0766 57.6295C34.3644 57.6746 34.4743 57.8025 34.5181 58.0845C34.6155 58.7053 34.7353 59.3225 34.872 59.936C35.0052 60.5325 35.5781 60.7091 36.0294 60.2973C36.3387 60.0162 36.6247 59.7099 36.9205 59.4135C38.1566 58.1782 39.3918 56.9439 40.627 55.7096Z" fill="white"/>
<path d="M51.7354 37.1586C51.2831 36.2261 50.67 35.5242 49.6842 35.1756C49.5715 35.1359 49.4527 34.9161 49.4518 34.7791C49.4375 31.8969 49.4384 29.0138 49.4375 26.1316C49.4375 23.8647 49.4419 21.5979 49.4402 19.3301C49.4393 18.5544 49.1291 18.249 48.3471 18.249C41.794 18.2499 35.2408 18.2526 28.6886 18.2535C27.6608 18.2535 26.633 18.2454 25.606 18.2499C24.7444 18.2535 24.4548 18.54 24.4531 19.413C24.4477 23.1809 24.4495 26.9497 24.4477 30.7175C24.445 37.0226 24.4423 43.3285 24.4405 49.6335C24.4405 50.7083 24.689 50.9624 25.7544 50.9633C27.7207 50.966 29.6861 50.9723 31.6524 50.9579C32.0519 50.9552 32.3969 51.0102 32.7285 51.2615C33.0064 51.4715 33.3425 51.6039 33.759 51.8274C33.2415 52.3175 32.7839 52.7662 32.3057 53.1905C32.2101 53.2761 32.0367 53.3041 31.899 53.305C29.7844 53.3113 27.6688 53.3212 25.5542 53.305C23.4279 53.2887 22.1275 51.9535 22.1203 49.7921C22.1123 47.4198 22.1185 45.0484 22.1185 42.6762C22.1185 39.7039 22.1167 36.7315 22.1185 33.7592C22.1203 30.4563 22.123 27.1533 22.1319 23.8512C22.1364 22.2015 22.1346 20.5501 22.1722 18.9004C22.2106 17.221 23.6782 15.9127 25.3674 15.9136C27.9441 15.9154 30.5209 15.91 33.0967 15.91C38.1608 15.9091 43.224 15.9091 48.2881 15.91C50.4322 15.91 51.7675 17.2561 51.7649 19.4229C51.7568 25.1576 51.7452 30.8923 51.7354 36.6279C51.7354 36.8045 51.7354 36.9811 51.7354 37.1586Z" fill="white"/>
<path d="M32.9219 48.6441C33.0193 48.3811 33.0971 48.109 33.2177 47.8567C33.4501 47.3711 33.6977 46.8926 33.9542 46.4196C34.1946 45.9764 34.2143 45.5412 33.9774 45.0916C33.712 44.5889 33.4546 44.0825 33.1972 43.5762C32.7467 42.6914 32.9594 42.0121 33.8308 41.5598C34.2143 41.3607 34.5861 41.1273 34.9883 40.9805C35.8177 40.6786 36.1439 40.0624 36.2118 39.2299C36.2485 38.783 36.3236 38.3379 36.3933 37.8946C36.513 37.136 37.1074 36.6828 37.8608 36.7873C38.4194 36.8648 38.9754 36.9648 39.5313 37.0639C40.1265 37.1702 40.6387 37.0774 41.0632 36.5837C41.4332 36.1539 41.8506 35.7647 42.2573 35.3692C42.849 34.7944 43.5202 34.78 44.1199 35.3449C44.5436 35.744 44.9574 36.1575 45.3462 36.5918C45.76 37.0549 46.2551 37.1756 46.8396 37.0684C47.3947 36.9666 47.9515 36.8702 48.5092 36.7855C49.2734 36.6693 49.8472 37.0801 49.9911 37.8568C50.0921 38.401 50.1815 38.9488 50.244 39.4993C50.3182 40.1534 50.6122 40.612 51.229 40.8777C51.7196 41.0886 52.1889 41.3535 52.6635 41.6021C53.424 42.0013 53.6484 42.6707 53.2703 43.4491C53.0156 43.9744 52.7439 44.4915 52.4686 45.0051C52.2157 45.4772 52.1996 45.9394 52.4543 46.4169C52.7215 46.9179 52.9763 47.4269 53.2337 47.9333C53.6645 48.7838 53.4562 49.4487 52.6214 49.8785C52.1451 50.1235 51.6732 50.3812 51.1843 50.5983C50.5854 50.8641 50.3164 51.3245 50.2467 51.9597C50.1841 52.5246 50.0903 53.0877 49.983 53.6463C49.8454 54.3581 49.3109 54.7617 48.595 54.6816C48.0346 54.6185 47.4769 54.5203 46.9228 54.4131C46.2936 54.2914 45.7537 54.3851 45.3059 54.8996C44.9332 55.3276 44.5266 55.7267 44.1154 56.1186C43.5318 56.6763 42.8785 56.6781 42.2877 56.1213C41.8855 55.742 41.486 55.3555 41.1285 54.9356C40.6762 54.4041 40.131 54.2824 39.4821 54.4104C38.9432 54.5167 38.4007 54.6113 37.8555 54.6825C37.0976 54.7816 36.513 54.3302 36.3906 53.5698C36.2959 52.9787 36.1975 52.3868 36.1251 51.793C36.059 51.2507 35.7837 50.884 35.3056 50.647C34.7595 50.3767 34.2152 50.101 33.6744 49.8172C33.2159 49.5784 32.9603 49.2009 32.9219 48.6441ZM43.1913 37.873C38.9834 37.8757 35.5942 41.294 35.5916 45.5376C35.5889 49.7749 38.9924 53.2112 43.1922 53.2121C47.4224 53.213 50.8285 49.7704 50.8071 45.516C50.7856 41.2598 47.4081 37.8703 43.1913 37.873Z" fill="white"/>
<path d="M36.896 25.5802C34.2755 25.5802 31.6558 25.5811 29.0353 25.5793C28.8423 25.5793 28.6465 25.5811 28.4561 25.554C27.9673 25.4847 27.599 25.081 27.549 24.5828C27.5007 24.1008 27.8046 23.616 28.2747 23.4692C28.4553 23.4124 28.6546 23.3953 28.8458 23.3953C34.2353 23.3917 39.6247 23.3935 45.015 23.3899C45.5307 23.3899 45.9624 23.5331 46.1975 24.0269C46.3968 24.444 46.3262 24.8486 46.033 25.2018C45.7595 25.5315 45.3815 25.5829 44.9801 25.582C42.6876 25.5757 40.3951 25.5739 38.1017 25.5712C37.6995 25.5702 37.2973 25.5712 36.896 25.5712C36.896 25.5748 36.896 25.5775 36.896 25.5802Z" fill="white"/>
<path d="M36.8974 31.1752C34.2625 31.1752 31.6268 31.1806 28.992 31.168C28.689 31.1662 28.3592 31.1274 28.0902 31.0013C27.6764 30.8076 27.4958 30.4103 27.5593 29.9544C27.6236 29.4877 27.8864 29.1534 28.3646 29.0453C28.5505 29.003 28.7453 28.9804 28.9366 28.9795C34.267 28.9759 39.5975 28.9777 44.9279 28.9759C45.4257 28.9759 45.8762 29.0615 46.1515 29.5444C46.5331 30.2148 46.1443 31.0581 45.3828 31.1383C44.8966 31.1896 44.4024 31.1635 43.9108 31.1635C41.5736 31.1653 39.2355 31.1644 36.8983 31.1644C36.8974 31.168 36.8974 31.1716 36.8974 31.1752Z" fill="white"/>
<path d="M45.8027 55.6492C46.0432 55.2843 46.3292 55.1321 46.7841 55.2492C47.2846 55.378 47.8084 55.4132 48.3214 55.4951C49.645 55.7069 50.6979 54.905 50.8677 53.5526C50.9062 53.2463 50.9508 52.94 51.0054 52.5381C51.4925 53.0238 51.9224 53.4472 52.3469 53.8761C53.0405 54.5761 53.7287 55.2816 54.424 55.9799C54.6582 56.215 54.82 56.4637 54.719 56.816C54.6135 57.1827 54.3096 57.2602 53.9977 57.3214C53.4588 57.4277 52.9216 57.5494 52.3782 57.6187C52.0502 57.6602 51.9286 57.8179 51.8813 58.1224C51.7919 58.6981 51.6846 59.2711 51.5702 59.8423C51.4326 60.528 50.8391 60.7532 50.3556 60.2739C48.8496 58.7819 47.365 57.2683 45.8733 55.7609C45.8447 55.7312 45.8278 55.6898 45.8027 55.6492Z" fill="white"/>
<path d="M40.627 55.7096C39.3918 56.9439 38.1566 58.1783 36.9205 59.4126C36.6247 59.7081 36.3387 60.0145 36.0294 60.2965C35.5781 60.7082 35.0052 60.5316 34.872 59.9352C34.7353 59.3225 34.6155 58.7045 34.5181 58.0837C34.4734 57.8017 34.3644 57.6737 34.0766 57.6287C33.4465 57.5296 32.8172 57.4079 32.1961 57.2629C31.6544 57.1368 31.4516 56.5439 31.8404 56.1484C33.0005 54.9672 34.1901 53.8149 35.3958 52.6238C35.4565 52.9923 35.512 53.3662 35.5808 53.7374C35.8087 54.9672 36.8428 55.7015 38.0556 55.5015C38.6419 55.4051 39.2265 55.2699 39.8163 55.2339C40.08 55.2177 40.3553 55.4024 40.6261 55.4961C40.627 55.5673 40.627 55.6384 40.627 55.7096Z" fill="white"/>
<path d="M43.1994 52.1066C39.6225 52.1048 36.6785 49.1442 36.6758 45.5466C36.674 41.9202 39.6181 38.9551 43.2092 38.9668C46.8254 38.9776 49.7221 41.913 49.7168 45.5602C49.7114 49.1659 46.7825 52.1084 43.1994 52.1066Z" fill="white"/>
</svg>
