<svg width="75" height="75" viewBox="0 0 75 75" fill="none" xmlns="http://www.w3.org/2000/svg">
<circle cx="37.5" cy="37.5" r="37.5" fill="#FFC63C"/>
<g clip-path="url(#clip0_8512_11525)">
<path d="M35.4509 15.9091C36.4315 15.9091 37.4121 15.9091 38.3924 15.9091C38.5166 15.9373 38.6395 15.9818 38.765 15.9908C41.154 16.1612 43.4671 16.6932 45.6335 17.6981C53.5767 21.3812 58.0905 27.5689 58.985 36.3134C59.3247 39.6326 58.8361 42.8679 57.6176 45.9722C53.7938 55.7126 44.2687 61.3766 33.9148 60.0309C29.5355 59.4617 25.6614 57.6794 22.3456 54.7558C18.3075 51.1954 15.8603 46.74 15.0225 41.4117C14.9293 40.8188 14.8554 40.223 14.7725 39.6285C14.7725 38.6185 14.7725 37.6085 14.7725 36.5985C14.8365 36.0732 14.8896 35.5459 14.9665 35.0222C15.5959 30.7279 17.2815 26.902 20.1295 23.6222C23.7014 19.5086 28.1896 17.0136 33.5783 16.1634C34.2004 16.0654 34.8266 15.9933 35.4509 15.9091ZM36.9277 56.5144C47.0863 56.5121 55.3471 48.2564 55.3545 38.0986C55.3622 27.912 47.1068 19.6325 36.937 19.6265C26.763 19.6207 18.4913 27.8889 18.4878 38.0679C18.4846 48.25 26.7479 56.5166 36.9277 56.5144Z" fill="white"/>
<path d="M33.2659 38.1031C33.2659 35.9826 33.2643 33.862 33.2685 31.7411C33.2688 31.5121 33.265 31.2719 33.33 31.0566C33.5505 30.3234 34.4092 30.0726 35.0911 30.5547C36.2087 31.3446 37.3097 32.1585 38.4168 32.9638C40.2813 34.3201 42.1449 35.6773 44.0092 37.0339C44.9299 37.704 44.9376 38.4894 44.0232 39.1544C41.1102 41.2734 38.1959 43.3913 35.279 45.5052C35.0943 45.6391 34.8968 45.7794 34.6832 45.8447C33.9907 46.0558 33.3408 45.5859 33.2797 44.8536C33.2666 44.6957 33.2662 44.5368 33.2662 44.3783C33.2656 42.2865 33.2659 40.1948 33.2659 38.1031Z" fill="white"/>
</g>
<defs>
<clipPath id="clip0_8512_11525">
<rect width="44.3182" height="44.3182" fill="white" transform="translate(14.7725 15.9091)"/>
</clipPath>
</defs>
</svg>
