<svg width="75" height="75" viewBox="0 0 75 75" fill="none" xmlns="http://www.w3.org/2000/svg">
<circle cx="37.5" cy="37.5" r="37.5" fill="#7F58FE"/>
<path d="M15.9092 24.8354C16.1322 23.9862 16.4691 23.2035 17.1388 22.6017C17.8625 21.9515 18.6971 21.5927 19.67 21.5923C31.5988 21.5909 43.528 21.5898 55.4568 21.593C57.5352 21.5938 59.2283 23.294 59.2301 25.3851C59.2355 31.9017 59.2355 38.4182 59.2305 44.9343C59.229 47.0483 57.5367 48.7391 55.4277 48.7405C49.1812 48.7445 42.9347 48.742 36.6881 48.742C36.5207 48.742 36.3537 48.742 36.1318 48.742C36.1318 48.9196 36.1318 49.07 36.1318 49.2208C36.1318 50.8711 36.1343 52.5218 36.1311 54.1721C36.1282 55.6513 35.0316 56.7652 33.5722 56.7667C30.3714 56.7699 27.1705 56.7699 23.97 56.7667C22.5099 56.7652 21.4129 55.652 21.4104 54.1735C21.4076 52.3825 21.4097 50.5915 21.4097 48.7416C20.8999 48.7416 20.4121 48.7416 19.9245 48.7416C17.8808 48.7413 16.5 47.6591 15.9784 45.6519C15.9644 45.598 15.9325 45.5492 15.9092 45.4978C15.9092 38.6102 15.9092 31.723 15.9092 24.8354ZM24.8913 39.8283C22.0797 37.2818 22.2005 33.3874 24.3424 31.0622C26.5761 28.6376 30.2111 28.4188 32.6861 30.5609C33.8934 31.6058 34.6039 32.9458 34.7545 34.5382C34.9535 36.6413 34.2085 38.4023 32.6484 39.8251C34.823 41.394 35.8536 43.5716 36.14 46.1817C36.306 46.1817 36.4455 46.1817 36.5849 46.1817C42.7612 46.1817 48.9378 46.1817 55.1141 46.1817C56.2089 46.1817 56.6942 45.6978 56.6942 44.6049C56.6946 38.3158 56.6946 32.0264 56.6942 25.7374C56.6942 24.6376 56.2132 24.1526 55.123 24.1526C43.419 24.1522 31.7149 24.1522 20.0106 24.1526C18.9247 24.1526 18.4469 24.6394 18.4469 25.7446C18.4465 31.166 18.4469 36.5871 18.4469 42.0085C18.4469 42.9477 18.439 43.8866 18.4497 44.8258C18.4583 45.5532 18.9197 46.109 19.6119 46.164C20.1984 46.2103 20.7917 46.1734 21.4033 46.1734C21.685 43.5622 22.7232 41.3886 24.8913 39.8283ZM24.0263 54.1782C27.1873 54.1782 30.3785 54.1782 33.5769 54.1782C33.5841 54.0943 33.593 54.039 33.5934 53.9836C33.5937 51.5789 33.6357 49.1735 33.5701 46.7705C33.5479 45.9517 33.3622 45.0982 33.0668 44.3329C32.1473 41.9488 29.8785 40.7784 27.5648 41.3994C25.7455 41.8877 24.1309 43.8135 24.0517 45.9134C23.9481 48.653 24.0263 51.3995 24.0263 54.1782ZM28.7618 31.668C26.8704 31.6749 25.2899 33.2829 25.3039 35.186C25.3179 37.0782 26.8844 38.6558 28.7589 38.6652C30.6452 38.6746 32.2369 37.0749 32.238 35.1679C32.2387 33.2612 30.6499 31.6611 28.7618 31.668Z" fill="white"/>
<path d="M49.0779 28.422C50.177 28.422 51.2761 28.4202 52.3755 28.4228C53.1886 28.4246 53.7406 28.9566 53.732 29.7226C53.7238 30.4647 53.1724 30.9808 52.3766 30.9816C50.1784 30.9837 47.9798 30.9837 45.7816 30.9816C44.97 30.9808 44.418 30.447 44.4259 29.681C44.4334 28.941 44.9865 28.4246 45.7806 28.4228C46.8797 28.4199 47.9788 28.422 49.0779 28.422Z" fill="white"/>
<path d="M49.0346 36.4467C47.9495 36.4467 46.8644 36.4489 45.7792 36.446C44.9684 36.4438 44.4163 35.9104 44.4249 35.1436C44.4331 34.4047 44.987 33.8876 45.7814 33.8868C47.9796 33.885 50.1782 33.8847 52.3764 33.8868C53.1718 33.8876 53.7235 34.404 53.7314 35.1458C53.7393 35.9125 53.188 36.4442 52.3746 36.446C51.2611 36.4489 50.148 36.4467 49.0346 36.4467Z" fill="white"/>
<path d="M49.0603 41.9112C47.9612 41.9112 46.8621 41.9137 45.7627 41.9104C44.9772 41.9079 44.4266 41.3788 44.4248 40.6341C44.4234 39.8887 44.9736 39.3527 45.7555 39.352C47.968 39.3491 50.1802 39.3495 52.3928 39.352C53.1796 39.3531 53.7299 39.8822 53.731 40.6276C53.732 41.3752 53.1836 41.9083 52.3996 41.9108C51.2868 41.9141 50.1738 41.9112 49.0603 41.9112Z" fill="white"/>
<path d="M41.5478 35.1516C41.5531 35.8825 40.995 36.4489 40.2723 36.4464C39.5689 36.4438 39.0162 35.889 39.0108 35.1805C39.0051 34.4496 39.5628 33.884 40.2855 33.8865C40.99 33.889 41.5424 34.4431 41.5478 35.1516Z" fill="white"/>
<path d="M41.5478 40.6515C41.5395 41.3759 40.966 41.9278 40.2375 41.9112C39.5403 41.8953 39.0036 41.326 39.0108 40.6103C39.0183 39.8873 39.5926 39.3354 40.3207 39.3517C41.0176 39.3669 41.5557 39.9368 41.5478 40.6515Z" fill="white"/>
<path d="M41.5477 29.6901C41.5524 30.4206 40.9935 30.9856 40.2698 30.9823C39.5668 30.979 39.0151 30.4232 39.0108 29.7143C39.0061 28.9841 39.565 28.4188 40.2884 28.4224C40.9917 28.4257 41.5431 28.9808 41.5477 29.6901Z" fill="white"/>
</svg>
