<svg width="16" height="16" viewBox="0 0 16 16" fill="none" xmlns="http://www.w3.org/2000/svg">
<path d="M11.333 2.00033H13.9997C14.1765 2.00033 14.3461 2.07056 14.4711 2.19559C14.5961 2.32061 14.6663 2.49018 14.6663 2.66699V13.3337C14.6663 13.5105 14.5961 13.68 14.4711 13.8051C14.3461 13.9301 14.1765 14.0003 13.9997 14.0003H1.99967C1.82286 14.0003 1.65329 13.9301 1.52827 13.8051C1.40325 13.68 1.33301 13.5105 1.33301 13.3337V2.66699C1.33301 2.49018 1.40325 2.32061 1.52827 2.19559C1.65329 2.07056 1.82286 2.00033 1.99967 2.00033H4.66634V0.666992H5.99967V2.00033H9.99967V0.666992H11.333V2.00033ZM9.99967 3.33366H5.99967V4.66699H4.66634V3.33366H2.66634V6.00033H13.333V3.33366H11.333V4.66699H9.99967V3.33366ZM13.333 7.33366H2.66634V12.667H13.333V7.33366Z" fill="#B2BEC3"/>
</svg>
