<svg width="14" height="13" viewBox="0 0 14 13" fill="none" xmlns="http://www.w3.org/2000/svg">
<path d="M5.66683 0H8.3335C9.74798 0 11.1045 0.561903 12.1047 1.5621C13.1049 2.56229 13.6668 3.91885 13.6668 5.33333C13.6668 6.74782 13.1049 8.10438 12.1047 9.10457C11.1045 10.1048 9.74798 10.6667 8.3335 10.6667V13C5.00016 11.6667 0.333496 9.66667 0.333496 5.33333C0.333496 3.91885 0.895399 2.56229 1.89559 1.5621C2.89579 0.561903 4.25234 0 5.66683 0ZM7.00016 9.33333H8.3335C8.85878 9.33333 9.37893 9.22987 9.86423 9.02885C10.3495 8.82783 10.7905 8.53319 11.1619 8.16176C11.5334 7.79033 11.828 7.34937 12.029 6.86407C12.23 6.37877 12.3335 5.85862 12.3335 5.33333C12.3335 4.80805 12.23 4.2879 12.029 3.8026C11.828 3.3173 11.5334 2.87634 11.1619 2.50491C10.7905 2.13347 10.3495 1.83883 9.86423 1.63782C9.37893 1.4368 8.85878 1.33333 8.3335 1.33333H5.66683C4.60596 1.33333 3.58855 1.75476 2.8384 2.50491C2.08826 3.25505 1.66683 4.27247 1.66683 5.33333C1.66683 7.74 3.30816 9.31067 7.00016 10.9867V9.33333Z" fill="#B2BEC3"/>
</svg>
