<svg width="24" height="24" viewBox="0 0 24 24" fill="none" xmlns="http://www.w3.org/2000/svg">
<path d="M5.625 4.5C5.32663 4.5 5.04048 4.61853 4.8295 4.8295C4.61853 5.04048 4.5 5.32663 4.5 5.625V8.25C4.5 8.44891 4.42098 8.63968 4.28033 8.78033C4.13968 8.92098 3.94891 9 3.75 9C3.55109 9 3.36032 8.92098 3.21967 8.78033C3.07902 8.63968 3 8.44891 3 8.25V5.625C3 4.176 4.176 3 5.625 3H8.25C8.44891 3 8.63968 3.07902 8.78033 3.21967C8.92098 3.36032 9 3.55109 9 3.75C9 3.94891 8.92098 4.13968 8.78033 4.28033C8.63968 4.42098 8.44891 4.5 8.25 4.5H5.625ZM15 3.75C15 3.55109 15.079 3.36032 15.2197 3.21967C15.3603 3.07902 15.5511 3 15.75 3H18.375C19.824 3 21 4.176 21 5.625V8.25C21 8.44891 20.921 8.63968 20.7803 8.78033C20.6397 8.92098 20.4489 9 20.25 9C20.0511 9 19.8603 8.92098 19.7197 8.78033C19.579 8.63968 19.5 8.44891 19.5 8.25V5.625C19.5 5.32663 19.3815 5.04048 19.1705 4.8295C18.9595 4.61853 18.6734 4.5 18.375 4.5H15.75C15.5511 4.5 15.3603 4.42098 15.2197 4.28033C15.079 4.13968 15 3.94891 15 3.75ZM3.75 15C3.94891 15 4.13968 15.079 4.28033 15.2197C4.42098 15.3603 4.5 15.5511 4.5 15.75V18.375C4.5 18.996 5.004 19.5 5.625 19.5H8.25C8.44891 19.5 8.63968 19.579 8.78033 19.7197C8.92098 19.8603 9 20.0511 9 20.25C9 20.4489 8.92098 20.6397 8.78033 20.7803C8.63968 20.921 8.44891 21 8.25 21H5.625C4.92881 21 4.26113 20.7234 3.76884 20.2312C3.27656 19.7389 3 19.0712 3 18.375V15.75C3 15.5511 3.07902 15.3603 3.21967 15.2197C3.36032 15.079 3.55109 15 3.75 15ZM20.25 15C20.4489 15 20.6397 15.079 20.7803 15.2197C20.921 15.3603 21 15.5511 21 15.75V18.375C21 19.0712 20.7234 19.7389 20.2312 20.2312C19.7389 20.7234 19.0712 21 18.375 21H15.75C15.5511 21 15.3603 20.921 15.2197 20.7803C15.079 20.6397 15 20.4489 15 20.25C15 20.0511 15.079 19.8603 15.2197 19.7197C15.3603 19.579 15.5511 19.5 15.75 19.5H18.375C18.6734 19.5 18.9595 19.3815 19.1705 19.1705C19.3815 18.9595 19.5 18.6734 19.5 18.375V15.75C19.5 15.5511 19.579 15.3603 19.7197 15.2197C19.8603 15.079 20.0511 15 20.25 15Z" fill="#6F767E"/>
</svg>
